<svg xmlns="http://www.w3.org/2000/svg" viewBox="0 0 120 120">
  <circle cx="60" cy="60" r="54" fill="#6b3f18"/>
  <circle cx="60" cy="60" r="49" fill="none" stroke="#b8843c" stroke-width="4"/>
  <circle cx="60" cy="60" r="44" fill="#6b3f18"/>

  <path d="M60 29 L84 39 L60 49 L36 39 Z" fill="#e0ad57"/>
  <path d="M49 44 H71 V50 C65 54 55 54 49 50 Z" fill="#e0ad57"/>
  <path d="M79 41 V52" stroke="#e0ad57" stroke-width="3" stroke-linecap="round"/>
  <circle cx="79" cy="55" r="3.5" fill="#e0ad57"/>

  <path d="M27 57 C39 52 51 54 58 62 V85 C49 78 38 76 27 80 Z" fill="#fff8ea"/>
  <path d="M93 57 C81 52 69 54 62 62 V85 C71 78 82 76 93 80 Z" fill="#fff8ea"/>
  <path d="M58 62 L60 66 L62 62 V86 L60 89 L58 86 Z" fill="#d6b98b"/>

  <path d="M36 66 C43 64 49 65 54 68" stroke="#c49a69" stroke-width="2" stroke-linecap="round" fill="none"/>
  <path d="M36 73 C43 71 49 72 54 75" stroke="#c49a69" stroke-width="2" stroke-linecap="round" fill="none"/>
  <path d="M66 68 C71 65 77 64 84 66" stroke="#c49a69" stroke-width="2" stroke-linecap="round" fill="none"/>
  <path d="M66 75 C71 72 77 71 84 73" stroke="#c49a69" stroke-width="2" stroke-linecap="round" fill="none"/>
</svg>